<svg width="32" height="32" viewBox="0 0 32 32" fill="none" xmlns="http://www.w3.org/2000/svg">
<path d="M21.0603 24.9386C21.3421 25.2204 21.5004 25.6026 21.5004 26.0011C21.5004 26.3997 21.3421 26.7818 21.0603 27.0636C20.7785 27.3454 20.3963 27.5037 19.9978 27.5037C19.5993 27.5037 19.2171 27.3454 18.9353 27.0636L8.93532 17.0636C8.79548 16.9243 8.68453 16.7587 8.60882 16.5764C8.53311 16.394 8.49414 16.1986 8.49414 16.0011C8.49414 15.8037 8.53311 15.6082 8.60882 15.4259C8.68453 15.2436 8.79548 15.078 8.93532 14.9386L18.9353 4.93864C19.2171 4.65684 19.5993 4.49854 19.9978 4.49854C20.3963 4.49854 20.7785 4.65684 21.0603 4.93864C21.3421 5.22043 21.5004 5.60262 21.5004 6.00114C21.5004 6.39965 21.3421 6.78184 21.0603 7.06364L12.1241 15.9999L21.0603 24.9386Z" fill="black"/>
</svg>
