<svg width="48" height="48" viewBox="0 0 48 48" fill="none" xmlns="http://www.w3.org/2000/svg">
<path fill-rule="evenodd" clip-rule="evenodd" d="M40.32 24.3865C40.32 23.181 40.2118 22.0219 40.0109 20.9092H24V27.4851H33.1491C32.755 29.6101 31.5573 31.4106 29.7568 32.616V36.8815H35.2509C38.4655 33.9219 40.32 29.5637 40.32 24.3865Z" fill="#4285F4"/>
<path fill-rule="evenodd" clip-rule="evenodd" d="M24.0004 41C28.5904 41 32.4386 39.4777 35.2514 36.8814L29.7573 32.6159C28.235 33.6359 26.2877 34.2386 24.0004 34.2386C19.5727 34.2386 15.825 31.2482 14.4881 27.23H8.80859V31.6345C11.6059 37.1905 17.355 41 24.0004 41Z" fill="#34A853"/>
<path fill-rule="evenodd" clip-rule="evenodd" d="M14.4877 27.23C14.1477 26.21 13.9546 25.1205 13.9546 24C13.9546 22.8796 14.1477 21.79 14.4877 20.77V16.3655H8.80818C7.65682 18.6605 7 21.2568 7 24C7 26.7432 7.65682 29.3396 8.80818 31.6346L14.4877 27.23Z" fill="#FBBC05"/>
<path fill-rule="evenodd" clip-rule="evenodd" d="M24.0004 13.7614C26.4963 13.7614 28.7373 14.6191 30.4991 16.3037L35.375 11.4277C32.4309 8.68455 28.5827 7 24.0004 7C17.355 7 11.6059 10.8096 8.80859 16.3655L14.4881 20.77C15.825 16.7518 19.5727 13.7614 24.0004 13.7614Z" fill="#EA4335"/>
</svg>
