<svg width="25" height="28" viewBox="0 0 25 28" fill="none" xmlns="http://www.w3.org/2000/svg">
<path d="M12.5066 0.666748C16.0799 0.666748 19.0176 3.47463 19.1667 7.03251H19.1318C19.136 7.13593 19.1161 7.23892 19.0738 7.33341H19.2819C20.9046 7.33341 22.6038 8.45809 23.2851 11.1732L23.3592 11.4935L24.3843 19.7531C25.1221 25.0211 22.2399 27.2365 18.3083 27.3303L18.0446 27.3334H6.99137C2.9957 27.3334 -0.0832743 25.8774 0.593708 20.1115L0.639873 19.7531L1.67685 11.4935C2.18819 8.56966 3.90481 7.41641 5.55883 7.33777L5.74228 7.33341H5.84652C5.82894 7.23388 5.82894 7.13205 5.84652 7.03251C5.99563 3.47463 8.93333 0.666748 12.5066 0.666748ZM8.62933 11.7725C7.97852 11.7725 7.45094 12.3155 7.45094 12.9853C7.45094 13.6552 7.97852 14.1982 8.62933 14.1982C9.28013 14.1982 9.80772 13.6552 9.80772 12.9853L9.79853 12.8332C9.72582 12.2352 9.23007 11.7725 8.62933 11.7725ZM16.3478 11.7725C15.697 11.7725 15.1694 12.3155 15.1694 12.9853C15.1694 13.6552 15.697 14.1982 16.3478 14.1982C16.9986 14.1982 17.5261 13.6552 17.5261 12.9853C17.5261 12.3155 16.9986 11.7725 16.3478 11.7725ZM12.4543 2.40326C9.88885 2.40326 7.80912 4.47585 7.80912 7.03251C7.8267 7.13205 7.8267 7.23388 7.80912 7.33341H17.1576C17.1205 7.23734 17.1008 7.13545 17.0995 7.03251C17.0995 4.47585 15.0198 2.40326 12.4543 2.40326Z" fill="#D7CDB9"/>
</svg>
